<svg xmlns="http://www.w3.org/2000/svg" width="1400" height="1400" viewBox="0 0 1400 1400">
<title>U+2227 LOGICAL AND</title>
<path fill="#000000" fill-rule="nonzero" d="M274.969,692.645 Q230.377,788.947 162.310,939.798 Q160.163,944.556 157.129,948.804 Q154.095,953.052 150.291,956.626 Q146.486,960.201 142.058,962.964 Q137.629,965.727 132.746,967.574 Q127.864,969.420 122.715,970.279 Q117.566,971.137 112.348,970.974 Q107.131,970.812 102.045,969.634 Q96.960,968.457 92.202,966.310 Q87.444,964.163 83.196,961.129 Q78.948,958.095 75.374,954.290 Q71.799,950.486 69.036,946.057 Q66.272,941.629 64.426,936.746 Q62.580,931.864 61.721,926.715 Q60.863,921.566 61.026,916.348 Q61.188,911.131 62.366,906.045 Q63.543,900.960 65.690,896.202 Q133.970,744.879 178.781,648.105 Q242.261,511.012 297.424,398.644 Q298.571,396.307 299.942,394.094 Q301.313,391.880 302.894,389.811 Q304.476,387.743 306.252,385.839 Q308.029,383.936 309.983,382.215 Q311.937,380.495 314.051,378.975 Q316.165,377.454 318.417,376.148 Q320.670,374.843 323.040,373.764 Q325.409,372.685 327.873,371.844 Q330.337,371.002 332.872,370.406 Q335.407,369.811 337.987,369.466 Q340.568,369.122 343.171,369.032 Q345.773,368.942 348.371,369.107 Q350.970,369.273 353.539,369.693 Q356.109,370.112 358.625,370.781 Q361.141,371.451 363.580,372.364 Q366.018,373.276 368.356,374.424 Q370.417,375.436 372.383,376.622 Q374.350,377.809 376.206,379.161 Q378.062,380.513 379.794,382.021 Q381.527,383.528 383.122,385.180 Q384.718,386.832 386.164,388.616 Q387.611,390.399 388.898,392.302 Q390.184,394.204 391.302,396.210 Q392.419,398.216 393.359,400.312 Q446.647,519.129 509.783,650.695 Q568.464,772.977 629.281,893.052 Q630.458,895.375 631.401,897.802 Q632.344,900.229 633.045,902.737 Q633.745,905.244 634.197,907.809 Q634.648,910.373 634.846,912.969 Q635.045,915.565 634.987,918.168 Q634.930,920.771 634.617,923.356 Q634.305,925.941 633.741,928.483 Q633.177,931.025 632.366,933.499 Q631.556,935.974 630.507,938.357 Q629.458,940.740 628.180,943.008 Q626.902,945.277 625.408,947.409 Q623.914,949.542 622.219,951.518 Q620.523,953.494 618.641,955.294 Q616.760,957.094 614.712,958.701 Q612.663,960.308 610.467,961.706 Q608.270,963.105 605.948,964.281 Q601.291,966.640 596.263,968.045 Q591.236,969.449 586.031,969.846 Q580.826,970.243 575.644,969.617 Q570.461,968.991 565.501,967.366 Q560.540,965.741 555.992,963.180 Q551.443,960.618 547.482,957.218 Q543.521,953.819 540.299,949.712 Q537.077,945.604 534.719,940.948 Q473.388,819.859 414.217,696.555 Q377.222,619.464 343.558,546.664 Q310.599,615.698 274.969,692.645 Z"/>
</svg>
