<svg xmlns="http://www.w3.org/2000/svg" width="1400" height="1400" viewBox="0 0 1400 1400">
<title>U+210F PLANCK CONSTANT OVER TWO PI</title>
<path fill="#000000" fill-rule="nonzero" d="M100.000,1014.500 Q116.000,1028.000 138.000,1028.000 Q158.000,1028.000 171.000,1020.000 Q184.000,1012.000 193.000,987.000 Q231.000,877.000 269.500,799.000 Q308.000,721.000 341.500,677.500 Q375.000,634.000 394.000,630.000 Q405.000,649.000 412.000,673.500 Q419.000,698.000 425.000,736.500 Q431.000,775.000 437.000,837.000 Q442.000,889.000 455.500,933.500 Q469.000,978.000 491.000,1004.500 Q513.000,1031.000 542.000,1031.000 Q566.000,1031.000 580.000,1017.000 Q594.000,1003.000 594.000,982.000 Q594.000,972.000 591.000,962.000 Q588.000,952.000 583.000,943.000 Q574.000,927.000 565.500,906.000 Q557.000,885.000 550.000,849.000 Q543.000,813.000 536.000,752.000 Q529.000,676.000 516.000,622.000 Q503.000,568.000 477.000,539.500 Q451.000,511.000 404.000,511.000 Q363.000,511.000 323.500,543.000 Q284.000,575.000 242.500,647.000 Q214.087,696.294 183.565,768.088 Q185.687,735.207 189.500,704.500 Q199.000,628.000 210.500,562.000 Q221.264,500.224 226.333,448.085 Q246.670,444.855 259.186,442.774 Q293.772,437.025 320.270,431.789 Q323.893,431.073 327.307,429.663 Q330.721,428.254 333.795,426.206 Q336.868,424.158 339.483,421.550 Q342.098,418.941 344.154,415.873 Q346.210,412.805 347.627,409.394 Q349.045,405.984 349.770,402.362 Q350.495,398.741 350.500,395.047 Q350.505,391.354 349.789,387.730 Q349.432,385.923 348.899,384.160 Q348.366,382.396 347.664,380.693 Q346.961,378.990 346.094,377.364 Q345.228,375.738 344.206,374.205 Q343.185,372.672 342.018,371.247 Q340.851,369.821 339.550,368.517 Q338.249,367.213 336.826,366.042 Q335.404,364.872 333.873,363.846 Q332.343,362.821 330.719,361.950 Q329.095,361.080 327.394,360.373 Q325.693,359.665 323.931,359.128 Q322.169,358.591 320.362,358.230 Q318.556,357.868 316.723,357.685 Q314.890,357.502 313.047,357.500 Q311.205,357.498 309.371,357.676 Q307.538,357.854 305.730,358.211 Q280.351,363.227 246.886,368.790 Q239.369,370.039 228.926,371.720 Q228.220,350.321 225.500,334.000 Q219.000,295.000 203.000,277.500 Q187.000,260.000 162.000,260.000 Q137.000,260.000 126.000,275.000 Q115.000,290.000 114.000,309.000 Q113.000,329.000 114.000,351.500 Q114.794,369.367 115.903,389.756 Q114.712,389.956 113.565,390.150 Q73.653,396.906 43.272,403.305 Q41.469,403.685 39.712,404.239 Q37.955,404.794 36.261,405.518 Q34.567,406.242 32.952,407.128 Q31.338,408.015 29.817,409.056 Q28.297,410.096 26.886,411.281 Q25.475,412.466 24.187,413.783 Q22.899,415.100 21.747,416.537 Q20.594,417.974 19.588,419.518 Q18.582,421.061 17.732,422.695 Q16.881,424.329 16.196,426.039 Q15.510,427.749 14.995,429.518 Q14.480,431.287 14.141,433.098 Q13.802,434.908 13.642,436.744 Q13.482,438.579 13.502,440.421 Q13.523,442.263 13.724,444.094 Q13.925,445.926 14.305,447.728 Q15.066,451.343 16.518,454.739 Q17.969,458.135 20.056,461.183 Q22.142,464.230 24.783,466.813 Q27.424,469.395 30.518,471.412 Q33.611,473.429 37.039,474.804 Q40.467,476.179 44.098,476.859 Q47.728,477.539 51.421,477.498 Q55.114,477.456 58.728,476.695 Q83.218,471.537 114.536,466.081 Q110.340,518.629 99.000,581.000 Q87.000,647.000 76.500,727.500 Q66.000,808.000 66.000,909.000 Q66.000,948.000 75.000,974.500 Q84.000,1001.000 100.000,1014.500 Z"/>
</svg>
