<svg xmlns="http://www.w3.org/2000/svg" width="1400" height="1400" viewBox="0 0 1400 1400">
<title>U+03A5 GREEK CAPITAL LETTER UPSILON</title>
<path fill="#000000" fill-rule="nonzero" d="M187.000,1022.500 Q200.000,1035.000 221.000,1035.000 Q244.000,1035.000 257.000,1021.500 Q270.000,1008.000 277.000,970.000 Q292.000,897.000 316.500,824.500 Q341.000,752.000 375.500,684.000 Q410.000,616.000 453.500,555.000 Q497.000,494.000 549.000,442.000 Q568.000,423.000 577.500,410.500 Q587.000,398.000 590.500,386.500 Q594.000,375.000 594.000,360.000 Q594.000,343.000 588.000,331.500 Q582.000,320.000 572.500,313.500 Q563.000,307.000 550.000,307.000 Q537.000,307.000 523.500,313.000 Q510.000,319.000 490.000,339.000 Q429.000,397.000 377.500,470.000 Q331.591,535.075 294.423,604.918 Q284.823,588.396 276.000,574.500 Q256.000,543.000 237.500,518.000 Q219.000,493.000 201.000,469.500 Q183.000,446.000 163.500,417.500 Q144.000,389.000 122.000,348.000 Q109.000,325.000 94.500,317.000 Q80.000,309.000 63.000,309.000 Q43.000,309.000 31.000,322.500 Q19.000,336.000 19.000,359.000 Q19.000,378.000 25.500,394.000 Q32.000,410.000 47.000,435.000 Q70.000,471.000 90.000,497.000 Q110.000,523.000 131.000,550.500 Q152.000,578.000 178.000,615.000 Q204.000,652.000 237.000,708.000 Q239.404,711.739 241.986,715.050 Q228.448,747.109 217.000,779.000 Q189.000,857.000 175.000,925.000 Q167.000,961.000 170.500,985.500 Q174.000,1010.000 187.000,1022.500 Z"/>
</svg>
