<svg xmlns="http://www.w3.org/2000/svg" width="1400" height="1400" viewBox="0 0 1400 1400">
<title>U+03B1 GREEK SMALL LETTER ALPHA</title>
<path fill="#000000" fill-rule="nonzero" d="M457.428,526.030 Q443.800,518.403 428.459,512.282 Q386.506,495.541 339.021,492.947 Q289.919,490.265 243.113,503.249 Q192.351,517.332 151.033,548.101 Q126.973,565.804 107.322,589.557 Q88.756,611.998 75.038,638.823 Q61.973,664.370 53.872,692.770 Q46.028,720.270 43.228,749.054 Q40.457,777.537 42.777,805.690 Q45.129,834.236 52.583,860.814 Q60.329,888.436 73.169,912.437 Q86.788,937.895 105.460,958.002 Q124.506,978.302 147.560,991.715 Q170.088,1004.821 195.585,1010.941 Q220.037,1016.811 246.084,1015.979 Q270.988,1015.184 296.261,1008.291 Q345.288,994.920 389.595,960.964 Q415.431,941.165 437.272,916.159 Q439.203,922.503 441.350,928.553 Q462.169,985.539 501.447,1006.787 Q524.433,1019.222 551.339,1018.580 Q574.343,1018.030 599.114,1007.661 Q601.357,1006.722 603.497,1005.568 Q605.638,1004.413 607.655,1003.055 Q609.671,1001.696 611.545,1000.146 Q613.419,998.597 615.133,996.871 Q616.846,995.145 618.381,993.259 Q619.917,991.374 621.260,989.346 Q622.604,987.320 623.742,985.171 Q624.880,983.022 625.803,980.772 Q626.725,978.521 627.422,976.192 Q628.119,973.862 628.585,971.475 Q629.050,969.089 629.279,966.667 Q629.509,964.247 629.500,961.815 Q629.491,959.383 629.243,956.964 Q628.996,954.545 628.512,952.161 Q628.029,949.778 627.314,947.454 Q626.600,945.129 625.661,942.886 Q623.778,938.389 621.055,934.345 Q618.331,930.302 614.870,926.867 Q611.410,923.433 607.346,920.740 Q603.283,918.046 598.771,916.197 Q594.260,914.349 589.475,913.415 Q584.690,912.482 579.815,912.500 Q574.939,912.518 570.161,913.488 Q565.383,914.457 560.886,916.339 Q553.326,919.504 548.974,919.608 Q548.590,919.617 548.379,919.604 Q548.081,919.399 547.601,918.958 Q546.152,917.627 544.484,915.316 Q539.274,908.096 534.650,895.447 Q518.920,851.118 518.767,774.492 Q518.742,762.209 519.117,748.465 Q521.630,738.140 523.784,727.505 Q539.456,650.150 534.413,566.095 Q534.177,562.159 533.308,558.313 Q532.439,554.467 530.961,550.812 Q529.482,547.157 527.432,543.788 Q525.383,540.420 522.816,537.427 Q520.249,534.434 517.232,531.895 Q514.216,529.356 510.829,527.337 Q507.441,525.319 503.773,523.874 Q500.104,522.429 496.250,521.596 Q495.598,521.400 494.941,521.221 Q494.284,521.044 493.622,520.884 Q492.960,520.724 492.294,520.582 Q491.628,520.441 490.958,520.317 Q490.289,520.194 489.616,520.089 Q488.943,519.985 488.268,519.898 Q487.592,519.812 486.915,519.745 Q486.237,519.677 485.558,519.628 Q483.733,519.496 481.902,519.500 Q480.072,519.504 478.246,519.643 Q476.421,519.781 474.611,520.055 Q472.801,520.328 471.016,520.734 Q469.231,521.140 467.481,521.677 Q465.731,522.214 464.026,522.879 Q462.320,523.543 460.668,524.332 Q459.017,525.121 457.428,526.030 Z M422.522,694.748 Q420.903,720.463 420.235,742.957 Q407.073,788.490 385.029,825.026 Q361.626,860.190 330.592,883.973 Q301.397,906.348 270.739,914.709 Q242.427,922.430 218.227,916.621 Q194.242,910.863 176.540,891.998 Q155.808,869.671 145.980,834.623 Q141.038,817.000 139.449,797.724 Q137.845,778.255 139.772,758.446 Q143.756,717.490 161.400,682.989 Q179.510,647.576 208.967,625.899 Q235.748,605.956 269.043,596.719 Q300.516,587.988 333.729,589.803 Q365.331,591.529 392.510,602.374 Q413.556,610.772 427.993,623.034 Q424.083,669.967 422.522,694.748 Z"/>
</svg>
