<svg xmlns="http://www.w3.org/2000/svg" viewBox="0 0 765 569" role="img" aria-label="y = 2x + 1" style="font-family:system-ui, -apple-system, BlinkMacSystemFont, 'Segoe UI', sans-serif">
  <title>y = 2x + 1</title>
  <rect width="765" height="569" fill="#ffffff"/>
  <text x="382.5" y="60.55" text-anchor="middle" font-size="18.8" font-weight="600" fill="#181818">y = 2x + 1</text>
  
  <g class="grid"><line x1="71.77000000000001" y1="488.83" x2="711.77" y2="488.83" stroke="#dadada" stroke-width="0.59"/><line x1="71.77000000000001" y1="355.49666666666667" x2="711.77" y2="355.49666666666667" stroke="#dadada" stroke-width="0.59"/><line x1="71.77000000000001" y1="222.16333333333336" x2="711.77" y2="222.16333333333336" stroke="#dadada" stroke-width="0.59"/><line x1="71.77000000000001" y1="88.82999999999998" x2="711.77" y2="88.82999999999998" stroke="#dadada" stroke-width="0.59"/><line x1="71.77000000000001" y1="88.83" x2="71.77000000000001" y2="488.83" stroke="#dadada" stroke-width="0.59"/><line x1="199.77" y1="88.83" x2="199.77" y2="488.83" stroke="#dadada" stroke-width="0.59"/><line x1="327.77" y1="88.83" x2="327.77" y2="488.83" stroke="#dadada" stroke-width="0.59"/><line x1="455.77" y1="88.83" x2="455.77" y2="488.83" stroke="#dadada" stroke-width="0.59"/><line x1="583.77" y1="88.83" x2="583.77" y2="488.83" stroke="#dadada" stroke-width="0.59"/><line x1="711.77" y1="88.83" x2="711.77" y2="488.83" stroke="#dadada" stroke-width="0.59"/></g>
  <g class="axes"><line x1="71.77000000000001" y1="488.83" x2="711.77" y2="488.83" stroke="#181818" stroke-width="1.18"/><line x1="71.77000000000001" y1="88.83" x2="71.77000000000001" y2="488.83" stroke="#181818" stroke-width="1.18"/><line x1="68.24" y1="488.83" x2="71.77000000000001" y2="488.83" stroke="#8c8c8c" stroke-width="0.88"/><text x="64.72" y="491.7105" text-anchor="end" font-size="8.23" fill="#8c8c8c">-5</text><line x1="68.24" y1="355.49666666666667" x2="71.77000000000001" y2="355.49666666666667" stroke="#8c8c8c" stroke-width="0.88"/><text x="64.72" y="358.377166667" text-anchor="end" font-size="8.23" fill="#8c8c8c">0</text><line x1="68.24" y1="222.16333333333336" x2="71.77000000000001" y2="222.16333333333336" stroke="#8c8c8c" stroke-width="0.88"/><text x="64.72" y="225.043833333" text-anchor="end" font-size="8.23" fill="#8c8c8c">5</text><line x1="68.24" y1="88.82999999999998" x2="71.77000000000001" y2="88.82999999999998" stroke="#8c8c8c" stroke-width="0.88"/><text x="64.72" y="91.7105" text-anchor="end" font-size="8.23" fill="#8c8c8c">10</text><line x1="71.77000000000001" y1="488.83" x2="71.77000000000001" y2="492.36" stroke="#8c8c8c" stroke-width="0.88"/><text x="71.77000000000001" y="504.1681" text-anchor="middle" font-size="8.23" fill="#8c8c8c">-4</text><line x1="199.77" y1="488.83" x2="199.77" y2="492.36" stroke="#8c8c8c" stroke-width="0.88"/><text x="199.77" y="504.1681" text-anchor="middle" font-size="8.23" fill="#8c8c8c">-2</text><line x1="327.77" y1="488.83" x2="327.77" y2="492.36" stroke="#8c8c8c" stroke-width="0.88"/><text x="327.77" y="504.1681" text-anchor="middle" font-size="8.23" fill="#8c8c8c">0</text><line x1="455.77" y1="488.83" x2="455.77" y2="492.36" stroke="#8c8c8c" stroke-width="0.88"/><text x="455.77" y="504.1681" text-anchor="middle" font-size="8.23" fill="#8c8c8c">2</text><line x1="583.77" y1="488.83" x2="583.77" y2="492.36" stroke="#8c8c8c" stroke-width="0.88"/><text x="583.77" y="504.1681" text-anchor="middle" font-size="8.23" fill="#8c8c8c">4</text><line x1="711.77" y1="488.83" x2="711.77" y2="492.36" stroke="#8c8c8c" stroke-width="0.88"/><text x="711.77" y="504.1681" text-anchor="middle" font-size="8.23" fill="#8c8c8c">6</text><text x="391.77" y="522.9" text-anchor="middle" font-size="10.58" font-weight="600" fill="#181818">x</text><text x="46.3754" y="288.83" text-anchor="middle" font-size="10.58" font-weight="600" fill="#181818" transform="rotate(-90 46.3754 288.83)">y</text></g>
  <g class="series" data-name="y = 2x + 1"><path d="M 199.77 435.496666667 L 263.77 382.163333333 L 327.77 328.83 L 391.77 275.496666667 L 455.77 222.163333333 L 519.77 168.83 L 583.77 115.496666667" fill="none" stroke="#3da5d9" stroke-width="2.35" stroke-linecap="round" stroke-linejoin="round"/><circle cx="199.77" cy="435.496666667" r="2.94" fill="#3da5d9" stroke="#ffffff" stroke-width="1.18"/><circle cx="263.77" cy="382.163333333" r="2.94" fill="#3da5d9" stroke="#ffffff" stroke-width="1.18"/><circle cx="327.77" cy="328.83" r="2.94" fill="#3da5d9" stroke="#ffffff" stroke-width="1.18"/><circle cx="391.77" cy="275.496666667" r="2.94" fill="#3da5d9" stroke="#ffffff" stroke-width="1.18"/><circle cx="455.77" cy="222.163333333" r="2.94" fill="#3da5d9" stroke="#ffffff" stroke-width="1.18"/><circle cx="519.77" cy="168.83" r="2.94" fill="#3da5d9" stroke="#ffffff" stroke-width="1.18"/><circle cx="583.77" cy="115.496666667" r="2.94" fill="#3da5d9" stroke="#ffffff" stroke-width="1.18"/></g>
</svg>